<svg version="1.1" xmlns="http://www.w3.org/2000/svg" viewBox="0 0 608.0481727752834 492" width="608.0481727752834" height="492">
  <!-- svg-source:excalidraw -->
  
  <defs>
    <style>
      @font-face {
        font-family: "Virgil";
        src: url("https://excalidraw.com/Virgil.woff2");
      }
      @font-face {
        font-family: "Cascadia";
        src: url("https://excalidraw.com/Cascadia.woff2");
      }
    </style>
  </defs>
  <rect x="0" y="0" width="608.0481727752834" height="492" fill="#fff5f5"></rect><g stroke-linecap="round" transform="translate(13.048172775283433 61) rotate(0 292.5 115.5)"><path d="M0 0 C0 0, 0 0, 0 0 M0 0 C0 0, 0 0, 0 0 M-0.79 6.59 C0.35 4.49, 1.15 4.13, 5.14 -0.02 M-0.45 6 C1.09 4.81, 2.68 3.17, 5.22 0.6 M1.25 13.25 C5.29 7.79, 7.32 2.16, 11.26 1 M-0.01 12.75 C3.37 7.35, 6.75 3.68, 11.26 -0.52 M-0.5 20.09 C4.25 13.04, 10.95 2.86, 14.89 1.04 M0.28 18 C4.95 13.32, 9.1 7.21, 15.92 -0.23 M0.93 24.8 C3.24 17.7, 9.16 13.84, 19.87 -1.83 M-0.35 23.73 C6.98 16.78, 13.48 9.2, 20.74 -1 M1.18 32.48 C9.21 21.73, 17.18 11.15, 26.65 0.11 M-0.48 31.35 C7.1 23.68, 13.74 15.24, 25.37 0.67 M-1.11 36.18 C7.19 24.82, 18.44 17.01, 30.89 1.39 M0.53 36.94 C6.08 29.12, 13.8 19.77, 31.97 0.24 M-0.04 40.55 C13.41 26.79, 27.64 7.91, 38.33 0.71 M0.12 42.64 C13.96 27.36, 24.98 11.89, 36.59 0.94 M-0.48 47.14 C15.75 30.93, 26.43 16.57, 43.95 -0.04 M-0.97 48.88 C14.5 31.45, 30.57 14.06, 42.01 0.74 M0.44 54.2 C13.9 38.67, 27.9 20.61, 46.68 1.31 M-0.56 54.08 C13.86 40.07, 27.09 24.44, 46.97 0.36 M0.05 61.77 C14.24 45.06, 27.1 30.26, 52.6 -1.72 M0.3 60.65 C17.14 40.8, 34.75 20.88, 52.99 0.2 M0.65 67.48 C16.06 48.23, 33.05 29.62, 57.58 0.79 M-0.62 66.69 C12.39 54.48, 24.02 40.44, 57.6 0.32 M-0.52 71.84 C14.67 56.41, 28.29 42.61, 62.51 -1.79 M-0.12 72.19 C23.78 46.18, 49.35 18.06, 63.2 -0.62 M0.7 77.6 C17.49 57.76, 35.7 34.46, 67.97 0.44 M-0.02 80.29 C21.43 56.7, 40.29 33.62, 68.27 0.69 M-0.11 83.5 C15.03 65.87, 30.93 47.69, 73.43 0.96 M-0.01 85.95 C28.9 51.69, 58.2 19.59, 74.18 -0.93 M0.79 91.41 C27.17 58.87, 53.96 25.2, 79.91 1.94 M0.56 90.98 C17.32 71.6, 34.58 53.47, 78.47 0.92 M-0.21 96.07 C31.23 62.53, 61.21 26.85, 85.21 1.2 M-0.1 98.7 C17.94 75.17, 37.3 54.33, 85.63 -0.88 M1.91 104.44 C27.18 72.27, 57 37.83, 90.55 1.39 M-0.73 103.18 C21.87 77.81, 42.97 53.31, 90.4 1.03 M-1.23 109.02 C20.68 85.98, 40.74 65.7, 95.79 0.97 M-0.42 109.48 C30.59 76.39, 60.07 42.71, 96.49 -0.58 M-0.88 115.62 C24.41 85.93, 51.23 56.27, 102.11 -0.7 M-0.52 115.34 C36.23 73.39, 70.34 33.1, 99.95 0.53 M-0.46 120.48 C21.87 97.08, 44.03 71.43, 107.2 -0.28 M0.69 121.16 C39.66 74.46, 78.68 29.95, 105.88 -1.09 M-1.07 130.03 C25.85 100.49, 48.58 71.67, 111.94 -1.42 M0.09 127.71 C40.06 84.39, 77.38 38.85, 111.75 -0.48 M0.54 134.24 C26.19 103.28, 54.76 72.89, 114.92 1.08 M0.28 134.37 C28.46 102.62, 58.11 68.27, 115.48 1.34 M-0.11 141.91 C42.2 90.7, 84.18 40.16, 122.45 -1.45 M-0.82 140.34 C38.43 97.51, 74.95 54.31, 122.08 -0.36 M1.34 146.48 C33.8 103.87, 68.99 61.6, 128.49 -0.19 M1.1 145.33 C31.67 110.72, 62.39 77.05, 127.13 1.22 M-1.15 153.07 C43.95 101.8, 86.9 50.36, 131.32 0.83 M-0.83 152.55 C45.15 101.36, 87.56 51.64, 132.03 -0.85 M-0.11 160.36 C52.41 101.48, 105.76 40.51, 137.55 0.33 M-0.09 159.43 C30.92 125.05, 59.31 90.82, 137.87 -0.51 M-1.01 164.31 C45.16 110.88, 95.64 54.98, 144.51 -0.15 M-0.04 164.97 C31.34 130.32, 61.49 93.88, 144 -0.43 M1.11 170.12 C38.55 124.78, 77.4 80.43, 148.47 -0.18 M-0.66 171.6 C40.98 122.03, 84.01 72.49, 147.83 0.87 M-0.16 177.18 C44.11 126.99, 88.66 74.37, 152.94 -0.16 M0.16 177.31 C55.75 111.43, 111.36 46.97, 153.93 -0.62 M-0.23 181.26 C46.12 131.09, 93.5 75.9, 158.06 -1.19 M0.19 183.43 C51.78 122.73, 102.33 64.3, 158.01 0.99 M-1.27 190.13 C32.22 147.62, 68.1 109.17, 165.85 1.47 M0.46 188.49 C46.72 133.98, 94.69 78.24, 164.55 0.12 M-0.73 195.12 C58.81 127.03, 117.69 56.29, 170.14 -1.11 M0.39 195.28 C40.58 145.48, 82.67 97.16, 169.46 0.14 M-1.55 200.74 C46.95 143.3, 95.47 88.32, 174.84 0.92 M0.35 200.95 C55.19 138.95, 110.41 76.74, 175.67 0.42 M-1.22 208.51 C60.58 140.56, 120.02 69.47, 180.33 0.95 M0.19 206.3 C62.71 136.29, 124.87 65.38, 179.4 0.18 M1.24 214.63 C59.46 143.24, 120.32 73.04, 185.62 1.24 M0.02 212.84 C44.03 161.85, 89.42 109.69, 185.34 0.25 M0.71 219.69 C48.73 162.73, 97.07 106.9, 190.92 0.82 M0.44 219.2 C64.09 144.58, 128.96 70.97, 190.04 0.51 M0.84 225.28 C76.42 137.97, 152.1 47.74, 196.61 1.01 M0.38 225.6 C59.47 156.7, 120.27 88.69, 196.83 0 M0.37 231.8 C75.81 143.62, 151.91 55.31, 202.5 0.26 M0.6 230.9 C66.68 156.8, 132.77 80.85, 201.26 0.63 M4.21 231.94 C77.24 151.48, 145.88 70.51, 207.19 -0.74 M5.45 231.63 C50.17 178.42, 96.45 125.79, 207.06 -0.32 M12.48 231.6 C60.67 176.24, 107.87 119.88, 212.88 -1.07 M10.97 230.53 C59.92 172.57, 111.41 114.01, 211.72 -0.56 M15.74 231.96 C69.74 171.44, 121.33 109.74, 219.03 -0.44 M15.69 231.66 C87.49 150.8, 158.78 69.68, 217.98 -0.31 M20.95 231.76 C67.42 177.45, 113.96 123.71, 221.39 -1.07 M22.48 230.25 C65.02 183.67, 105.77 137.49, 222.43 0.14 M27.4 231.21 C78.25 170.31, 129.68 112.83, 228.77 0.01 M27.15 231.02 C87.75 161.5, 149.42 89.93, 228.38 0.1 M31.91 231.02 C85.1 173.71, 134.38 112.59, 233.2 0.49 M32.78 230.54 C102.06 151.55, 171.54 72.43, 233.06 -0.52 M36.53 230.57 C86.37 177.54, 133.69 124.62, 237.54 1.21 M36.92 231.21 C102.53 155.92, 168.34 79.04, 238.36 0.68 M41.52 230.61 C86.4 177.24, 133.48 124.05, 243.42 0.54 M42.3 231.59 C118.57 144.56, 193.71 57.01, 244.18 0.02 M47.71 230.49 C120.47 143.52, 197.31 58.73, 249.2 -1.12 M48.78 230.85 C122.7 143.83, 199.86 56.22, 248.32 0.07 M54.46 232.68 C95.57 183.77, 137.1 133.81, 253.05 -0.1 M53.2 230.98 C103.91 172.35, 156.26 111.73, 255.04 -0.69 M59.86 232.43 C140.87 140.26, 220.82 49.45, 259.24 1.45 M59.41 230.79 C97.48 185.49, 139.34 138.7, 260.1 1.01 M64.13 231.83 C110.01 175.89, 158.26 118.68, 264.55 -1.03 M63.29 231.87 C125.82 158.63, 189.05 87.02, 265.76 -0.75 M70.49 231.64 C135.81 152.46, 202.07 77.53, 270.34 -0.48 M69.24 231.89 C120.69 171.94, 172.34 111.89, 270.19 0.81 M74.05 230.86 C135.46 161.3, 199.93 86.93, 274.71 -0.83 M73.72 231.98 C134.58 160.2, 195.53 90.47, 275.18 -0.39 M80.07 230.15 C148.41 153.05, 217.13 71.91, 281.68 -0.1 M80.31 231.44 C118.84 184.05, 160 136.53, 281.38 0.08 M84.18 231.41 C133.13 176.31, 179.29 122.13, 287.59 -1.41 M84.71 230.87 C160.54 145.09, 234.61 59.09, 285.88 0.22 M90.6 232.49 C150.27 160.65, 210.84 94.2, 290.3 1.01 M91.2 231.12 C133.23 185.74, 173.43 138.73, 291.9 0.54 M95.28 232.55 C158.43 158.38, 224.81 81.97, 295.78 -0.77 M96.24 232.12 C151.66 167.15, 207.13 101.84, 297.71 0.18 M101.24 229.72 C139.57 185, 180.91 136.81, 301.28 0.11 M100.6 230.43 C148.78 177.65, 195 123.93, 301.94 -0.02 M107.46 232.18 C169.92 157.6, 234.74 84.78, 307.79 -0.22 M105.94 231.03 C182.46 143.68, 257.63 57.19, 307.04 0.1 M112.67 229.82 C183.02 145.86, 257.19 62.18, 311.8 0.56 M112.46 230.4 C183.87 147.45, 258.3 62.22, 312.92 0.19 M115.83 231.38 C177.22 162.84, 238.06 92.51, 317.79 -0.07 M116.98 231.24 C164.5 176.22, 212.87 120.92, 317.61 -0.11 M122.76 230.25 C169.4 176.35, 214.23 125.42, 324.19 -1.23 M122.15 231.34 C179.04 165.75, 235.05 101.18, 323.88 0.46 M126.41 230.1 C194.78 153.94, 264.73 72.9, 330.11 -1.04 M127.26 231.01 C171.43 177.64, 216.24 125.65, 328.28 -0.51 M133.75 230.9 C201.67 152.25, 270.79 73.5, 332.88 0.1 M133.17 230.7 C206.27 148.69, 279.61 64.3, 333.63 -0.24 M137.34 231.44 C185.96 174.1, 235.15 118.2, 340.5 0.03 M137.38 231.16 C204.5 153.86, 270.26 77.38, 339.47 -0.39 M145.09 229.8 C223.12 139.52, 302.8 48.93, 343.21 0.13 M143.37 231.04 C182.74 183.4, 222.85 137.33, 344.4 0.35 M148.99 231.6 C197.38 176.53, 246.82 121.23, 348.43 0.87 M148.43 231.46 C208.73 159.85, 269.81 90.07, 348.93 0.28 M154.19 231.07 C226.45 143.6, 302.34 58.69, 355.54 0.47 M153.72 231.38 C211.55 165.58, 270.24 98.58, 355.31 -0.19 M159.64 229.95 C214.09 168.61, 268.99 104.07, 361.2 0.85 M159.82 231.34 C231.38 148.88, 302.33 65.99, 359.43 0.06 M163.37 231.84 C204.38 185.64, 246.83 135.47, 366.68 -1.28 M164.4 232.08 C229.07 157.36, 295.62 80.33, 365.97 0.47 M169.81 230.48 C230.69 157.84, 293.49 86.9, 371.2 1.15 M170.07 230.65 C220.49 171.36, 271.38 112.9, 371.18 -0.24 M174.5 231.03 C238.78 157.42, 301.96 86.4, 377.1 -1.46 M174.49 231.52 C239.48 157.62, 303.35 83.94, 375.79 -0.02 M180.78 231.72 C226.48 177.18, 275.97 121.26, 380.22 0.35 M180.34 231.8 C223.38 182.52, 266.55 132.76, 380.85 0.24 M184.42 230.74 C242.09 164.2, 297.35 97.89, 386.65 -0.47 M185.34 230.92 C239.9 169.66, 292.68 107.38, 387.58 -0.7 M190.32 231.02 C263.92 146.62, 334.55 62.42, 391.56 -0.51 M190.85 231.78 C232.34 181.91, 274.29 133.13, 391.79 0.9 M197.22 232.63 C268.25 148.72, 342.74 63.81, 398.84 -1.26 M196.25 231.57 C255.24 163.45, 312.76 95.75, 398.16 0.47 M202.76 231.81 C261.77 159.02, 325.27 88.96, 402.8 0.6 M201.64 231.63 C256.99 169.48, 310.39 108.3, 403.14 0.5 M205.53 230.71 C284.83 143.12, 361.22 54.74, 407.85 0.69 M206.68 231.17 C269.22 161.77, 330.46 92.55, 407.74 0.18 M213.09 230.61 C276.54 156.73, 341.16 82.1, 413.05 -0.47 M213.23 231.32 C286.83 147.59, 359.66 61.45, 413.46 0.69 M217.93 230.12 C262.88 179.18, 311.61 123.81, 420.23 -1.33 M216.96 231.78 C284.33 154.04, 350.64 78.28, 419.19 -0.89 M222.89 229.98 C297.57 145.29, 370.01 58.76, 424.36 -1.1 M223.03 230.49 C294.21 150.72, 364.53 70.47, 424.35 -0.45 M228.63 231.23 C302.77 143.53, 380.27 54.87, 430.3 -0.75 M227.56 231.89 C307.82 140.56, 387.9 49.34, 430.14 -0.21 M233.07 231.36 C284.03 173.14, 334.06 116.69, 434.52 0.93 M233.32 230.64 C273.99 182.65, 314.88 135.62, 433.97 -0.47 M239.1 231.11 C312.72 148.31, 386.47 66.17, 438.95 0.62 M238.4 231.46 C283.25 178.04, 328.93 125.89, 440.87 0.07 M245.34 230.67 C293.84 170.03, 347.95 111.13, 444.27 0.16 M244.7 231.47 C321.39 145, 397.63 56.16, 444.92 -0.49 M248.03 230.71 C307.8 166.28, 363.22 100.82, 452.2 -0.17 M249.51 231.23 C325.34 144.3, 399.09 58.8, 450.74 -0.33 M254.97 231.39 C322.84 157.74, 388.69 79.23, 455.89 -0.62 M255.4 231.64 C311.38 168.48, 366.36 105.05, 456.37 -0.16 M261.38 230.57 C322.33 158.31, 386.37 87.48, 462.42 0 M260.36 231.95 C310.58 172.03, 361.66 112.26, 461.78 -0.6 M266.7 231.48 C327.35 160.51, 387.21 89.85, 465.91 -0.48 M266.3 230.95 C334.96 150.3, 404.92 71.38, 466.17 0.18 M270.73 232.24 C311.3 183.45, 354.89 137.53, 472.21 0.96 M270.57 230.8 C337.74 154.45, 405.38 75.95, 471.52 -0.23 M275.28 231.41 C328.72 171.11, 381.7 111.18, 478.17 1.06 M275.28 231.76 C315.82 185.67, 355.62 139.04, 477.38 0.23 M280.72 231.06 C354.3 143.72, 431.28 57.62, 481.16 0.57 M280.64 230.77 C352.79 147.64, 426.48 64.58, 482.16 0.18 M286.88 232.55 C364.46 139.67, 442.27 49.52, 487.93 -0.28 M286.28 230.96 C348.54 161.77, 409.76 90.19, 487.42 0.43 M293.2 232.05 C334.7 183.99, 375.2 135.05, 492.01 0.7 M291.18 231.27 C350.13 165.58, 406.99 99.99, 492.98 -0.23 M296.4 231.63 C357.46 162.45, 417.61 95.93, 497.7 -0.53 M297.46 231.01 C354.32 165.21, 412.47 98.9, 498.94 -0.16 M302.84 231.15 C377.06 148.28, 449.21 64.86, 503.18 -0.15 M302.27 231.76 C374.01 146.97, 447.02 62.88, 503.71 0.95 M308.83 230.68 C369.94 160.96, 432.72 87.78, 510.09 -0.48 M307.42 231.82 C349.8 182.51, 392.43 132.96, 508.93 -0.31 M313.04 231.07 C366.4 168.95, 421.52 107.88, 515.31 1.18 M312.66 230.99 C365.51 171.2, 417.84 109.61, 514.58 0.71 M316.97 230.59 C392.67 146.18, 468.27 56.54, 520.53 -1.37 M318.14 230.81 C381.35 160.75, 443.2 89.57, 519.59 -0.19 M322.96 231.23 C367.12 181.72, 409.4 132.39, 524.05 -0.55 M323.43 230.65 C395.69 148.71, 467.6 66.66, 524.16 0.09 M328.85 232.52 C402.73 146.09, 478.77 59.72, 530.32 -0.51 M328.52 230.85 C381.73 170.33, 435.93 108.77, 530.38 -0.64 M334.69 232.04 C390.84 165.2, 449.27 101.86, 535.98 -0.18 M334.35 231.73 C378.46 182.67, 421.48 132.89, 535.87 0.51 M340.28 230.74 C418.95 141.98, 496.95 50.58, 542.26 -1.44 M339.4 230.89 C404.08 158.25, 467.81 84.8, 540.18 0.39 M346.07 230.6 C385.86 184.27, 425.65 135.7, 546.87 -0.9 M344.61 230.92 C406.46 158.21, 469 87.83, 545.69 0.16 M350.75 231.33 C399.97 178.47, 445.5 121.39, 550.56 -0.89 M349.96 230.96 C423.44 147.09, 495.16 64.95, 550.93 -0.05 M355 230.82 C412.07 167.8, 470.13 102.18, 557.65 -1.28 M355.02 231.46 C423.76 153.14, 491.06 76.15, 555.87 0.54 M361.99 230.58 C430.09 149.25, 498.43 69, 562.47 1.08 M361.34 231.52 C409.07 177.9, 457.64 122.96, 562.5 -0.54 M366.69 230.38 C429.71 162.6, 488.73 91.8, 567.13 0.39 M365.79 230.82 C422.22 167.29, 475.75 104.62, 567.04 -0.09 M370.76 230.83 C425.48 167.74, 479.4 107.32, 573.78 -0.33 M371.58 231.25 C424.8 173.27, 474.89 114.9, 572.08 -0.37 M377.71 230.88 C419.37 180.49, 463.05 128.68, 576.37 -1.11 M377.28 231.59 C441.55 159.33, 504.04 86.19, 577.4 -0.18 M381.79 230.39 C454.65 144.53, 530.09 56.97, 584.02 -0.96 M382.09 230.65 C437.39 168.56, 492.26 106.15, 582.79 0.53 M385.52 231.35 C435.58 176.18, 483.17 119.75, 585.89 2.39 M387.18 231.35 C457.47 149.52, 528.73 67.11, 586.55 1.56 M391.95 230.76 C463.31 151.02, 534.51 72.41, 588.23 6.76 M392.66 231.37 C469.06 144.03, 544.91 55.09, 586.12 8.29 M398.32 232.49 C465.22 151.86, 534.27 72.81, 586.09 13.87 M398.2 231.96 C454.36 163.74, 512.23 97.06, 586.56 12.91 M403.29 232.36 C466.48 159.27, 528.44 89.89, 587.16 18.82 M403.57 231.08 C457.83 169.23, 513.43 107.15, 587.47 19.21 M409.33 230.87 C453.21 181.29, 495.03 128.37, 587.66 26.39 M407.47 231.77 C471.32 156.06, 536.62 80.57, 587.26 26.89 M412.65 229.7 C471.31 164.48, 530.18 98.34, 586.59 33.01 M413.35 231.54 C465.14 172.03, 514.62 113.04, 586.94 31.17 M418.08 232.53 C474.21 168.98, 529.36 105.14, 587.16 37.19 M419.11 232.12 C477.01 165.18, 535.5 98.12, 587.16 37.64 M425.54 231.58 C457.25 191.3, 492.98 152.58, 587.11 44.95 M424.17 231.93 C468.92 181.07, 511.27 132.35, 587.66 43.64 M429.13 230.48 C476.49 177.93, 523.13 124.39, 586.07 49.28 M428.77 231.21 C485.53 167.34, 542.73 99.7, 587.16 50.56 M435.59 231.42 C487.38 171.64, 539.51 112.79, 585.38 58.34 M434.85 230.92 C484.95 170.62, 536.54 112.54, 585.98 55.98 M440.87 231.81 C474.07 192.99, 508.48 154.02, 586.07 63.85 M440.33 231.37 C488.65 172.83, 539.48 114.72, 586.22 62.79 M445.23 230.86 C488.39 181.13, 534.79 129.57, 585.03 67.51 M446.43 231.01 C475.17 200, 502.87 165.87, 586.06 68.63 M449.76 229.79 C486.63 191.65, 524.23 149.52, 586.5 75.47 M450.35 231.72 C492.18 184.52, 533.05 136.99, 586.42 74.25 M454.49 232.24 C489.19 194, 521.23 157.48, 588.24 80.63 M456.2 230.96 C506.24 172.2, 558.18 112.78, 587.11 79.99 M463.02 232.88 C501.92 185.39, 542.96 136.14, 584.96 88.41 M460.57 232.31 C493.81 190.43, 528.47 151.8, 586.44 88 M466.99 232.61 C501.07 194.65, 532.56 155.66, 588.53 94.51 M467.39 231.86 C491 202.61, 517.08 174.23, 586.21 93.42 M471.27 230.62 C514.41 180.17, 556.99 130.28, 586.14 97.44 M472.49 230.99 C515.99 179.61, 562.97 127.17, 586.62 98.73 M479.08 229.26 C501.77 202.1, 530.9 170.06, 586.73 106.37 M477.41 230.34 C521.5 179.83, 565.4 130.45, 586.35 105.37 M480.61 233.08 C520.7 186.12, 563.36 138.79, 587.7 110.29 M481.61 230.84 C503.7 207.54, 525.28 182.63, 587.78 111.79 M486.28 229.91 C511.79 203.3, 533.56 177.72, 585.4 117.76 M488.29 231.59 C514.81 200.41, 540.78 171.48, 587.17 117.11 M491.36 229.93 C528.3 191.45, 563.61 151.52, 585.14 122.23 M492.66 230.92 C524.74 193.59, 555.65 156.41, 587.2 123.35 M497.21 230.7 C520.55 205.41, 546.02 182.12, 585.13 129.38 M499.73 230.32 C530.37 193.96, 561.54 158.89, 586.5 130.69 M503.92 232.26 C529.87 200.07, 558.01 169.02, 589.03 134.91 M504.57 231.38 C525.66 205.77, 545.93 181.55, 586.84 136.12 M506.91 230.91 C533.66 206.29, 556.44 178.73, 586.63 143.6 M509.48 232.56 C526.36 212.95, 541.08 194.61, 587.37 142.48 M512.81 230.54 C535.64 205.45, 558.58 182.37, 586.39 147.14 M513.5 230.38 C536.35 205.04, 559.69 180.34, 585.74 149.12 M517.5 231.97 C544.16 207.62, 562.96 181.21, 587.39 155.44 M519 231.64 C545.12 202.16, 569.41 172.76, 587.7 153.14 M524.61 232.69 C545.71 205.88, 568.32 179.03, 585.31 161.91 M525.79 231.14 C540.76 213.54, 554.72 195.76, 587.6 159.64 M528.22 232 C545.64 212.48, 561.7 194.64, 586.96 167.32 M530.43 231.67 C550.92 206.18, 573.25 180.9, 586.59 165.38 M536.02 230 C553.72 208.23, 572.05 187.98, 584.99 172.83 M534.98 230.93 C554.5 211.19, 571.54 190.2, 587.85 172.79 M540.05 232.73 C549.57 220.41, 562.68 207.33, 588.36 179.83 M540.3 231.57 C550.54 220.73, 560.14 209.28, 586.71 179.69 M547.82 231.17 C556.02 221.83, 565.35 208.22, 588.38 183.2 M546.83 232.07 C557.66 219.33, 567.55 206.32, 587.27 183.47 M553.07 230.34 C560.36 221.09, 571.84 207.17, 586.64 190.7 M551.85 230.8 C563.76 216.48, 577.41 199.13, 585.89 190.37 M558.9 232.33 C564.14 220.15, 575.46 211.46, 587.54 196.71 M556.29 230.91 C568.02 219.23, 578.6 206.68, 586.37 196.13 M560.47 233.39 C567.35 223.53, 573.48 217.64, 587 201.34 M562.01 232.37 C569.62 222.77, 577.48 214.3, 586.19 203.01 M568.22 230.98 C574.24 224.18, 576.21 219.02, 584.96 208.21 M568.53 230.87 C572.48 226.67, 577.69 220.98, 585.68 208.51 M574.51 232.85 C577.07 225.03, 584 217.53, 585.38 215.78 M572.4 231.84 C576.77 226.24, 581.63 222.65, 587.54 214.52 M577.34 231.71 C580.14 227.67, 584.05 224.77, 586.39 222.18 M578.03 231.27 C582.04 227.26, 584.39 223.1, 587.2 221.5 M583.64 231.62 C584.51 230.48, 585.21 229.79, 586.77 227.06 M582.99 231.68 C584.43 229.86, 585.72 228.48, 587.45 226.86" stroke="#228be6" stroke-width="0.5" fill="none"></path><path d="M-0.29 0.36 C227.65 -0.57, 454.09 -0.63, 585.54 -0.3 M0.2 -0.21 C204.44 -0.6, 408.96 -0.48, 585.05 -0.36 M585.88 0.71 C583.39 63.95, 584.07 132.51, 583.34 230.92 M585.78 0.61 C586.14 54.17, 586.19 108.91, 584.31 231.8 M585.31 231.61 C429.36 231.77, 273.21 232.26, 0.55 230.72 M584.69 230.9 C421.48 231.69, 257.87 231.4, -0.2 231.18 M-0.07 232.23 C0.85 169.07, 1.06 104.56, -0.74 -0.67 M0.81 231.07 C1.17 172.62, 2.09 113.46, 0.82 0.14" stroke="#000000" stroke-width="1" fill="none"></path></g><g transform="translate(70.04817277528343 10) rotate(0 169 17.5)"><text x="169" y="25" font-family="Virgil, Segoe UI Emoji" font-size="28px" fill="#000000" text-anchor="middle" style="white-space: pre;" direction="ltr">global execution context</text></g><g stroke-linecap="round"><g transform="translate(11.048172775283433 101) rotate(0 292.74426735732703 -1.6703944662585712)"><path d="M-1.05 0.45 C96.81 -0.21, 488.85 -3.28, 586.54 -3.79 M0.6 -0.36 C98.43 -0.86, 488.77 -1.76, 585.99 -2.46" stroke="#000000" stroke-width="1" fill="none"></path></g></g><g stroke-linecap="round"><g transform="translate(371.7539521833322 67.09634285138921) rotate(0 0.9281483335047938 114.87893814705313)"><path d="M0.97 0.75 C1.18 39.21, 1.65 191.83, 1.84 229.66 M0.02 0.1 C0 38.33, 0.55 189.94, 0.77 228" stroke="#000000" stroke-width="1" fill="none"></path></g></g><g transform="translate(426.04817277528343 70) rotate(0 33 12.5)"><text x="0" y="18" font-family="Virgil, Segoe UI Emoji" font-size="20px" fill="#000000" text-anchor="start" style="white-space: pre;" direction="ltr">memory</text></g><g stroke-linecap="round" transform="translate(413.04817277528343 119) rotate(0 33 17.5)"><path d="M0 0 C0 0, 0 0, 0 0 M0 0 C0 0, 0 0, 0 0 M-0.13 6.12 C1.42 4.48, 4.07 2.68, 5.18 -0.31 M0.05 6.29 C1.09 4.57, 2.61 3.26, 4.72 0.52 M0.5 13.44 C2.79 10.25, 4.02 5.77, 11.23 0.76 M-0.42 12.43 C3.13 8.54, 5.71 5, 10.77 0.69 M-1.29 16.67 C4.84 13.19, 4.76 11.04, 17.39 -0.43 M-0.12 18.45 C5.24 10.84, 11.82 4.15, 16.34 1.3 M1.03 22.23 C7.25 18.19, 13.53 8.46, 21.12 -1.7 M1.03 24.05 C7.05 15.02, 15.53 5.71, 21.87 0.73 M1.88 29.7 C8.85 19.67, 19.2 9.84, 25.41 -0.26 M0.18 30.22 C6.37 23.74, 13.1 15.26, 27.14 -0.59 M0.27 36.76 C12.11 22.34, 22.33 9.18, 32.73 -0.85 M0.54 35.35 C12.36 23.53, 22.38 11.04, 32.88 -0.41 M6.32 34.55 C13.36 28.9, 19.7 19.18, 34.92 0.43 M5.6 34.87 C18.12 22.11, 30.49 8.3, 37.55 1.13 M9.78 37.14 C18.1 26.73, 28.36 15.11, 43.57 -1.96 M12.55 36.33 C17.9 29.08, 23.87 21.88, 41.55 -0.04 M16.95 36.38 C26.01 28.14, 34.27 15.82, 47.76 0.95 M17.12 34.87 C27.62 23.58, 40.08 9.82, 47.96 -0.31 M21.76 35.89 C29.69 26.51, 40.46 15.12, 52.42 -1.42 M21.52 36.76 C28.47 28.47, 34.51 21.72, 52.69 0.06 M28.83 37.21 C36.81 24.74, 44.01 12.34, 60.14 0.71 M27.48 36.16 C39.92 21.56, 51.52 7.63, 57.29 0.54 M30.61 36.04 C42.63 25.64, 53.33 14.22, 65.45 -0.53 M32.24 36.98 C42.48 23.7, 54.22 11.25, 63.11 -1.2 M37 36.88 C49.06 23.88, 59.96 9.65, 67.37 2.72 M38.09 36.08 C45.36 28.13, 51.6 20.6, 66.72 1.82 M41.19 36.98 C49.77 30.63, 54.64 25.08, 67.69 8.06 M43.11 36.85 C52.8 24.77, 62 13.85, 68.13 6.35 M49.93 36.3 C53.92 31.14, 57.91 26.26, 68.63 13.64 M49.38 35.7 C55.03 28.31, 60.31 21.33, 67.39 13.44 M53.4 37.43 C59.76 28.14, 63.51 21.86, 68.08 20.98 M53.71 35.64 C56.85 32.39, 60.79 26.81, 67.64 19.77 M59.37 35.52 C60.18 32.79, 62.45 32.7, 68.25 26.29 M59.61 35.05 C61.45 33.05, 64.71 29.51, 67.29 25.18 M64.02 35.48 C65.05 34.23, 66.65 33.24, 67.66 32.15 M64.43 35.9 C65.49 34.46, 66.35 33.07, 67.56 32.12" stroke="#fa5252" stroke-width="0.5" fill="none"></path><path d="M1.64 -0.53 C19.41 0.03, 41.89 -1.73, 66.1 -0.81 M0.73 -0.37 C20.61 0.56, 41.1 -0.64, 65.82 0.69 M64.59 0.96 C63.74 9.76, 65.38 20.13, 64.56 34.93 M66.45 0.03 C66.81 10.05, 67.06 21.1, 65.24 34.85 M65.17 33.52 C50.48 33.34, 39.15 34.27, 1.72 35.19 M66.33 34.28 C42.5 34.64, 17.39 35.65, -0.6 35.6 M0.92 34.01 C-1.12 24.32, -1.67 14.11, 0.28 -0.44 M-0.68 35.35 C-0.82 26.89, -1.12 19.04, 0.41 -0.44" stroke="#000000" stroke-width="1" fill="none"></path></g><g transform="translate(420.04817277528343 153) rotate(0 21.5 12.5)"><text x="0" y="18" font-family="Virgil, Segoe UI Emoji" font-size="20px" fill="#000000" text-anchor="start" style="white-space: pre;" direction="ltr">user</text></g><g transform="translate(418.04817277528343 124) rotate(0 28 12.5)"><text x="28" y="18" font-family="Virgil, Segoe UI Emoji" font-size="20px" fill="#000000" text-anchor="middle" style="white-space: pre;" direction="ltr">arya</text></g><g stroke-linecap="round" transform="translate(423.04817277528343 191) rotate(0 40 27)"><path d="M0 0 C0 0, 0 0, 0 0 M0 0 C0 0, 0 0, 0 0 M-0.85 6.53 C0.82 4.19, 3.94 1.42, 5.39 1.07 M-0.29 6.55 C1.81 4.38, 2.86 2.45, 5.33 0.38 M0.58 10.51 C1.75 9.1, 6.58 6.1, 11.2 1.17 M0.55 12.01 C3.48 8.74, 5.8 5.35, 10.72 0.19 M-0.53 17.92 C6.07 13.2, 10.31 8.14, 17.09 1.25 M0.25 18.88 C3.23 14.34, 6.11 10.85, 15.31 -0.37 M0.89 23.41 C6.71 13.82, 16.8 5.57, 21.2 -1.3 M0.68 24.5 C5.42 17.98, 9.63 12.85, 20.48 -0.56 M-1.31 28.76 C9.98 21.22, 17.55 8.29, 24.52 -0.54 M0.41 30.5 C6.01 23.78, 10.39 18.66, 26.17 0.79 M0.56 36.66 C6.75 29.72, 14.86 19.72, 31.96 -1.47 M0.29 36.66 C10 24.61, 20.48 11.65, 31.13 -1.06 M-1.85 43.74 C6.56 33.91, 17 24.78, 37.18 -0.63 M0.05 43.18 C12.56 27.86, 26.91 12.46, 37.14 0.29 M-0.98 47.84 C13.7 35.65, 21.89 21.54, 43.81 -1.02 M-0.07 49.9 C13.98 33.61, 25.62 18.98, 42.86 0.29 M-0.82 53.79 C11.6 42.01, 23.44 27.68, 46.08 -1.06 M-0.23 55.01 C12.13 41.83, 24.91 27.57, 48.09 0.53 M5.67 53.76 C24.31 32.53, 40.25 14.97, 54.05 -1.5 M5.19 53.19 C24.48 31.86, 43.93 10.86, 53.55 0.56 M10.71 54.13 C23.21 41.21, 31.5 29.96, 58.3 1.59 M10.37 53.54 C25.17 37.54, 41.18 19.19, 57.14 0.99 M15.4 52.2 C34.88 34.34, 52.57 12.98, 63.09 -2.06 M17.28 54.06 C28.74 40, 39.1 25.77, 63.76 -0.64 M19.76 54.57 C40.14 36.56, 54.19 17.09, 67.05 2.11 M22.36 55.03 C31.54 43.44, 42.07 31.4, 69.57 -0.81 M25.95 52.14 C46.49 33.38, 65.41 13.59, 76.4 -1.45 M27.34 53.88 C46.02 32.1, 63.65 10.34, 73.77 -0.13 M32.94 53.23 C46.74 38.61, 62.37 23.52, 77.6 0.7 M32.47 55.22 C46.9 36.33, 63.85 17.02, 78.89 -0.31 M39.72 54.64 C53.89 37.61, 67.01 20.4, 83.95 3.02 M37.32 53.77 C56.89 34.31, 73.48 12.62, 81.94 2.81 M43.96 54.66 C56.58 35.01, 75.61 17.33, 82.13 9.29 M42.09 54.37 C57.56 37.93, 70.49 23.1, 82.59 7.41 M49.22 52.19 C61.41 39.24, 71.62 27.1, 82.16 13.44 M48.36 54.9 C57.85 42.75, 67.97 31.48, 81.7 15.47 M51.62 55.79 C60.99 46.73, 66.93 36.06, 84.03 20.37 M54.36 54.31 C61.11 45.14, 71.13 34.01, 83.52 19.47 M58.38 55.46 C65.08 46.91, 70.84 43.92, 83.67 27.24 M59.15 54.26 C67.95 45.34, 75.37 33.61, 82.3 26.62 M65.81 55.97 C72.2 46.26, 76.96 41.54, 83.5 31.33 M63.1 53.4 C71.61 45.17, 78.31 37.31, 82.4 32.56 M67.22 56.22 C73.38 49.62, 78.24 45.37, 82.36 39.3 M69.54 54.59 C73.81 48.94, 79.81 43.56, 82.83 39.6 M73.98 54.71 C75.86 52.45, 77.82 48.86, 83.13 46.02 M74.17 53.87 C76.86 51.38, 79.51 47.92, 82.74 45.66" stroke="#fa5252" stroke-width="0.5" fill="none"></path><path d="M-1.93 0.21 C30.38 -1.09, 60.76 -0.4, 80.69 1.02 M0.13 0.37 C31.63 0.49, 61.04 0.89, 79.18 -0.51 M80.9 -1.06 C79.54 19.51, 79.99 41.62, 79.84 53.48 M79.64 -0.63 C79.61 15.85, 79.78 32.17, 80.7 54.12 M79.08 54.47 C57.92 56.23, 37.75 55.98, 1.55 54.65 M81 54.26 C57.34 53.25, 32.24 53.4, 0.5 54.44 M-1.7 54.71 C0.5 40.79, 0.88 22.45, 0.03 0.55 M0.84 53.84 C0.1 33.97, -0.08 14.12, 0.96 -0.58" stroke="#000000" stroke-width="1" fill="none"></path></g><g transform="translate(443.04817277528343 248) rotate(0 39 12.5)"><text x="0" y="18" font-family="Virgil, Segoe UI Emoji" font-size="20px" fill="#000000" text-anchor="start" style="white-space: pre;" direction="ltr">sayHello</text></g><g stroke-linecap="round" transform="translate(37.04817277528343 125) rotate(0 72.5 17)"><path d="M0 0 C0 0, 0 0, 0 0 M0 0 C0 0, 0 0, 0 0 M-0.13 6.15 C0.7 5.42, 2.2 2.86, 5.24 0.09 M-0.21 6.39 C0.59 4.93, 1.83 4.28, 5.15 0.53 M1.17 10.79 C2.52 9.42, 7.36 4.35, 9.58 -1.41 M-0.11 11.35 C3.25 7.34, 7.57 3.72, 10.96 -0.02 M1.87 18.29 C6.56 11.06, 9.73 4.26, 16.43 0.11 M0.41 18.47 C2.73 14.59, 6.52 9.39, 16.16 0.11 M-1.37 22.56 C3.3 16.65, 9.58 14.82, 19.27 1.15 M0.06 24.23 C4.96 18.51, 11.45 12.4, 21.17 0.59 M0.77 31 C6.75 21.98, 14.03 15.37, 25.39 -0.79 M0.23 31.12 C9.85 18.83, 20.24 6.42, 26.3 1.28 M1.04 36.05 C13.79 20.92, 24.77 9.52, 30.8 -0.88 M0.86 34.65 C9.44 24.24, 18.52 13.6, 31.39 0.34 M5.79 36.15 C15.64 26.32, 22.52 13.78, 36.63 -0.15 M6.93 35.42 C16.55 24.36, 27.29 11.04, 36.15 -0.72 M11.12 36.13 C21.76 24.44, 30.15 15.87, 42.33 -0.54 M12.16 35.42 C24.23 22.31, 35.93 8.27, 41.99 -1.13 M17.85 32.94 C25.04 28.96, 29.89 22.38, 46.36 -1.71 M16.63 34.59 C27.33 21.5, 40.05 10.36, 48.24 0.15 M20.35 35.26 C33.69 22.6, 47.2 7.85, 51.38 -0.1 M23.11 34.44 C35.1 20.62, 45.32 8.44, 53.98 0.37 M27.66 36.51 C34.05 27, 42.75 17.8, 56.91 -1.77 M28.85 35.9 C37.4 23.97, 48.52 11.61, 58.3 -0.03 M32.19 33.99 C43.26 24.12, 54.6 11.42, 64.56 -1.43 M33.87 34.37 C43.39 23.63, 54.23 12.24, 64.09 0.55 M38.95 33.86 C43.6 28.46, 51.07 20.48, 70.68 0.73 M38.73 35.64 C49.83 23.01, 60.14 8.98, 68.28 -0.14 M42.17 34.28 C55.71 23.03, 67.41 5.53, 75.58 0 M42.83 34.89 C50.64 28.22, 56.02 20.59, 73.71 -0.3 M50.56 34.4 C58.48 23.5, 72.37 10.47, 80.18 -1.72 M50.14 34.64 C58.74 23.41, 69.55 11.22, 79.32 0.99 M55.92 33.49 C62.14 26.85, 68.97 19.47, 83.24 1.13 M53.55 35.74 C63.88 23.93, 74.44 12.72, 85.98 -0.36 M58.41 35.94 C64.91 24.64, 72.09 19.71, 90 0.79 M60.62 35.3 C71.07 22.84, 81.37 9.63, 90.77 -0.41 M63.16 34.39 C75.36 23.46, 87.31 11.5, 97.43 1.31 M65.84 35.7 C76.06 22.17, 88.31 7.39, 94.72 -1.26 M69.52 34.72 C79.11 23.68, 89.41 10.98, 98.84 1.56 M70.43 34.54 C80.16 24.34, 88.72 13.91, 101.16 -0.07 M75.7 35.16 C85.7 23.77, 94.13 13.97, 105.14 0.3 M74.66 35.6 C83.35 27.17, 90.39 18.95, 105.45 -1.1 M79.34 36.11 C88.85 28.91, 93.7 20.93, 109.48 -0.72 M80.89 35.59 C90.41 23.14, 101.17 11.31, 111.27 -0.69 M85.46 35.39 C96.96 22.46, 109.24 7.91, 115.79 1.01 M85.22 35.32 C93.94 25.48, 103.45 15.32, 115.74 1.36 M92.41 33.63 C97.34 27.46, 105.01 19.04, 122.79 0.08 M91.98 35.98 C101.3 23.88, 110.83 12.33, 121.03 -0.9 M98.44 34.05 C106.85 23.7, 121.68 7.75, 125.88 0.5 M95.9 34.79 C105.27 26.13, 112.09 17.44, 126.85 0.61 M100.35 35.5 C109.83 26.89, 114.51 19.38, 131.75 -0.53 M101.39 35.03 C113.1 21.98, 126.52 7.02, 132.61 -0.29 M108.73 35.55 C117.71 23.41, 128.75 10.49, 137.02 0.49 M107.31 34.96 C117.37 24.74, 124.9 15.66, 136.74 -0.05 M110.57 35.55 C118.53 27.94, 129.71 15.72, 143.43 0.38 M112.22 35.85 C120.12 25.3, 128.64 16.39, 143.38 -0.42 M116.53 35.68 C127.25 24.15, 138.03 12.51, 147.25 -0.11 M117.23 34.87 C125.43 27.97, 132.04 20.33, 146.44 1.02 M123.56 36.04 C127.76 30.02, 131.44 23.85, 146.43 6.7 M123.23 35.12 C129.91 27.67, 136.62 18.96, 146.33 7.78 M130.12 35.66 C135.13 29.18, 139.35 23.97, 147.16 15.52 M127.68 34.57 C133.24 29.15, 139.63 21.63, 147.12 13.5 M134.88 33.62 C139.22 30.89, 142.36 23.76, 147.96 19.89 M133.9 36.04 C138.63 30.4, 143.27 23.82, 146.2 19.59 M139.63 35.62 C140.35 33.38, 143.06 31.42, 146.14 25.35 M139.61 34.47 C141.49 31.94, 143.72 29.93, 146.88 25.36" stroke="#fa5252" stroke-width="0.5" fill="none"></path><path d="M0.36 1 C58.2 0.3, 114.36 0.49, 143.3 0.71 M-0.84 0.01 C46.82 0.11, 93.65 0.22, 145.84 -0.16 M144.9 1.93 C143.8 11.76, 145.83 23.12, 143.65 32.02 M144.53 0.63 C144.48 14.54, 144.04 27.79, 144.96 34.53 M145.31 34.92 C111.99 35.38, 76.87 36.16, -1.48 34.32 M144.13 34.5 C116.42 35.24, 86.85 35.38, -0.08 34.38 M0.38 35.73 C0.1 20.39, -1.14 7.76, 0.55 -1.91 M0.68 34.36 C0.63 27.04, 0.66 19.84, 0.52 -0.03" stroke="#000000" stroke-width="1" fill="none"></path></g><g transform="translate(68.04817277528343 136) rotate(0 23 12.5)"><text x="0" y="18" font-family="Virgil, Segoe UI Emoji" font-size="20px" fill="#000000" text-anchor="start" style="white-space: pre;" direction="ltr">arya</text></g><g stroke-linecap="round" transform="translate(67.04817277528343 350) rotate(0 131 45.5)"><path d="M0 0 C0 0, 0 0, 0 0 M0 0 C0 0, 0 0, 0 0 M0.21 7.1 C1.53 4.67, 3.19 2.74, 5.5 1.01 M-0.34 6.49 C1.69 4.18, 3.06 2.69, 5.14 -0.02 M0.24 11.31 C2.84 8.29, 8.4 5.58, 9.95 -1.05 M-0.33 12.09 C3.6 7.94, 6.07 4.74, 10.95 0.11 M-1.19 17 C3.15 12.47, 9.71 8.01, 16.4 2.16 M0.55 17.95 C3.06 13.65, 7.58 9.53, 14.63 -0.02 M2.24 23.88 C5.68 14.98, 11.77 7.99, 19.38 0.55 M-0.38 24.88 C5.7 17.28, 11.37 11.62, 20.96 -0.68 M0.58 31.81 C8.61 18.74, 16.25 7.53, 27.75 -0.53 M0.62 30.52 C9.85 19.85, 16.46 11.21, 26.4 1.24 M-1.3 38.52 C9.22 30.13, 14.54 22.03, 31.46 -0.91 M0.32 37.12 C6.43 28.67, 12.76 23.01, 32.7 -0.61 M-1.71 40.75 C16.05 27.8, 29.45 9.55, 38.09 1.15 M0.99 41.79 C11.24 30.22, 19.75 19.15, 37.21 1 M1.83 49.62 C16.6 30.42, 32.13 11.49, 42.05 -1.97 M-0.08 49.7 C10.83 36.39, 21.95 23.45, 42.73 0.81 M1.12 56.38 C20.9 33.7, 39.36 9.85, 49.25 -0.16 M0.58 54.78 C15.44 38.44, 30.87 20.91, 47.76 0.1 M1.96 59.48 C15.89 40.69, 32.38 24.36, 54.3 -0.55 M0.91 60.76 C11.69 47.46, 24.85 31.87, 52.26 0.58 M0.69 66.42 C13.27 50.59, 26.14 38.2, 57.19 -0.41 M0.39 67.8 C21.81 43.68, 41.82 19, 57.98 -0.56 M0.15 73.02 C24.17 44.59, 51.91 14.38, 64.46 -2.14 M-0.34 73.76 C24.98 43.42, 50.56 16.28, 64.18 -0.76 M-0.33 80.76 C15.63 62.71, 31.61 40.99, 69.92 1.86 M-0.94 78.44 C15.96 61.99, 31.17 44.51, 67.99 0.95 M1.56 84.57 C27.39 54.22, 54.75 21.86, 75.84 -1.83 M0.74 85.21 C17.55 67.64, 33.45 49.25, 74.11 -0.13 M1.85 89.92 C31.3 53.77, 61.11 19.54, 77.59 -0.49 M-0.03 91.1 C19.18 68.06, 40.78 46.07, 79.14 0.62 M6.69 89.82 C31.07 64.89, 52.54 36.56, 84.88 1.7 M5.16 91.62 C30.02 61.41, 55.46 32.91, 85.34 -0.89 M11.3 92.03 C28.77 69.16, 43.55 49.46, 90.41 -1.19 M11.37 90.92 C30.62 67.64, 48.82 46.55, 90.94 -0.51 M14.89 91.94 C42.12 59.54, 69.42 30.08, 95.09 0.17 M16.88 90.58 C37.63 66.75, 59.04 42.36, 95.89 0.14 M22.14 91.75 C38.29 71.48, 56.73 51.47, 100.7 1.45 M21.21 91.7 C50.72 58.51, 80.31 24.75, 100.15 0.63 M26.35 91.49 C55.88 53.34, 86.49 21.35, 107.09 -2.29 M27.85 91.77 C57.7 55.85, 88.66 20.76, 105.47 -0.32 M32.13 90.1 C50.3 71.03, 67.21 49.92, 112.87 -1.5 M31.63 90.73 C50.36 69.25, 68.47 49.38, 111.69 0.17 M38.6 92.45 C57.95 67.24, 79.63 43.28, 115.93 1.61 M37.43 91.88 C65.34 57.07, 95.45 23.9, 115.84 -0.22 M42.09 90.48 C67.87 62.01, 88.7 35.92, 121.43 0.44 M43.49 91.87 C58.74 72.9, 76.28 53.14, 121.71 0.28 M47.28 90.18 C70.75 65.73, 92.37 39.77, 127.73 1.3 M48.2 91.65 C65.33 70.52, 82.68 49.03, 126.43 -0.26 M53.94 92.71 C71.73 69.4, 87.35 47.91, 132.96 -0.81 M53.36 90.48 C78.98 60.88, 104.74 31.2, 132.56 0.19 M60.1 89.44 C85.02 59.76, 110.96 32.01, 137.71 -1.11 M58.95 90.86 C88.67 56.53, 118.41 22.49, 137.41 -0.32 M64.72 91.02 C79.13 73.46, 96.18 56.22, 144.16 -1.97 M64.48 90.51 C93.53 58.4, 122.18 25.35, 143.79 -0.84 M70.89 90.42 C94.46 59.86, 119.37 29.1, 146.86 0.13 M69.67 91.33 C95.14 60.34, 120.71 30.74, 147.3 0.53 M72.52 92.03 C103.05 57.38, 130.64 24.41, 151.82 1.67 M73.82 91.42 C102.39 59.01, 130.21 27.03, 153.14 -0.49 M80.89 91.44 C96.83 72.86, 112.48 54, 159.28 1.18 M79.88 90.71 C96.46 72.92, 114.88 51.63, 159.34 -0.27 M86.57 92.77 C101.57 69.3, 122.24 48.88, 162.82 -1.76 M85.05 91.25 C106.72 65.43, 129.51 41.45, 163.57 -0.4 M91.42 91.99 C119.58 56.2, 152.51 21, 168.12 -1.39 M90.3 92.41 C111.35 68.48, 132.51 43.65, 168.45 0.31 M97.14 90.7 C117.71 67.38, 137.52 43.06, 176.12 1.24 M95.54 91.57 C126.77 56.32, 157.56 21.02, 174.25 -1.18 M101.93 91.22 C130.63 58.39, 157.98 21.53, 181.67 -0.62 M99.86 91.14 C124.85 63.96, 150.28 33.95, 180.27 -0.18 M105.65 89.65 C133.46 55.55, 164.93 22.06, 184.79 -0.39 M105.35 90.49 C126.98 65.89, 148.31 41.11, 185.53 0.65 M110.59 90.94 C129.57 69.97, 145.17 49.33, 189.29 -1.11 M111.36 90.93 C135.35 65.16, 157.83 39.71, 190.13 -0.64 M118.58 89.89 C142.85 59.86, 167.66 33.38, 197.99 -0.33 M116.28 91.68 C147.99 55.5, 179.23 18.7, 195.98 -0.42 M123.71 90.33 C149.41 58.28, 178.2 28.12, 199.42 -1.09 M121.81 90.85 C148.94 59.89, 176.22 29.95, 202.09 0.58 M129.51 90.07 C157.91 56.85, 185.27 23.66, 206.98 -0.83 M126.78 91.36 C155.11 58.7, 182.91 26.67, 207.36 0.16 M133.65 92.03 C162.02 57.16, 195.11 21.74, 213.63 1.65 M133.4 92 C155.2 64.23, 180.07 37.4, 211.88 0.68 M137.11 89.27 C157.16 69.67, 174.71 48.91, 219.1 1.25 M139.05 91.28 C154.27 71.95, 172.09 51.76, 217.65 -0.01 M144.89 92.06 C175.64 54.86, 204.71 17.67, 224.56 -0.32 M142.56 90.53 C162.53 69.52, 180.56 47.89, 221.95 -0.59 M147.16 92.94 C168.98 65.69, 193.06 43.74, 227.8 0.46 M147.98 91.76 C180.46 53.93, 212.28 17.07, 228.02 -1.3 M151.99 89.82 C177 64.92, 201.01 39.49, 233.94 -1.97 M152.88 90.67 C179.13 64.39, 202.49 35.43, 232.45 0.05 M158.52 90.98 C191.64 55.21, 217.93 20.78, 237.94 1.52 M160.14 90.63 C188.76 58.71, 217.27 24.16, 237.2 -0.25 M165.62 90.17 C193.89 60.12, 221.47 27.18, 242.6 0.1 M164.19 91.65 C186.69 66.73, 206.28 41.94, 244.23 0.44 M169.14 91.67 C190.95 68.81, 210.05 43.41, 250.48 2.28 M170.83 90.31 C197.67 57.64, 226.4 26.63, 249.06 0.35 M174.53 89.34 C200.47 62.24, 224.88 33.14, 252.47 1.7 M175.5 90.78 C203.95 57.61, 234.93 22.9, 253.86 -0.03 M182.07 91.69 C206.9 58.61, 233.49 26.93, 260.48 0.26 M181.04 90.74 C198.58 67.95, 217.37 46.78, 259.75 1.05 M187.56 92.97 C211.58 63.19, 236.67 33.54, 263.27 2.58 M186.03 90.4 C210.69 61.69, 236.32 34.76, 263.28 2.08 M190.81 90.92 C211.26 71.12, 230.3 48.26, 263.19 7.18 M189.83 91.17 C208.06 70.36, 227.18 48.17, 262.69 7.23 M195.65 90.12 C219.51 64.46, 244.04 35.73, 265.22 14.41 M196.21 90.9 C214.82 70.38, 230.67 50.69, 263.58 13.29 M199.89 91.32 C226.01 63.23, 250.37 36.57, 263.14 21.62 M201.89 92.13 C219.4 70.95, 237.1 50.13, 262.69 20.73 M205.84 91.24 C228.38 66.63, 246.22 45.49, 264.06 24.42 M206.66 91.73 C228.42 67.36, 249.18 43.07, 262.95 25.84 M211.01 91.59 C227.44 73.71, 241.53 55.31, 264.29 32.03 M212.68 90.96 C231.41 67.83, 253.11 45.05, 263.07 31.96 M219.27 90.19 C233.58 68.8, 253.35 51.05, 263.41 36.55 M217.22 90.37 C234.88 70.7, 252.54 51.56, 264.08 37.77 M223.58 90.02 C233.97 77.54, 248.36 62.63, 262.72 44.8 M222 91.8 C233.31 77.94, 243.87 66.53, 263.45 44.89 M229.14 90.25 C237.09 82.23, 244.97 71.55, 264 51.39 M227.92 91.35 C238.9 77.73, 249.34 66.38, 264.38 49.96 M232.12 91.35 C243.61 81.51, 251.33 67.97, 263.97 58.5 M232.36 91.33 C243.91 80.25, 254.73 67.66, 263.95 56.29 M238.78 90.1 C249.78 78.49, 259.72 68.41, 264.32 61.2 M237.99 91.25 C249.05 78.76, 258.59 68.31, 263.64 62.08 M244.24 92.7 C249.21 86.19, 252.95 82.94, 263.64 66.82 M243.98 91.78 C250.74 82.74, 257.77 73.62, 262.9 69.71 M247.6 89.81 C254.54 86.29, 258.61 83.09, 261.95 72.65 M248.87 91.7 C252.88 86.35, 257.06 82.19, 264.32 74.35 M254.6 90.14 C255.87 88.8, 258.5 87.24, 264.91 81.02 M253.99 91.75 C257.46 87.71, 261.5 83.26, 263.79 80.95 M260.37 91.45 C261.28 89.84, 261.82 88.99, 263.28 86.78 M259.9 90.82 C261.39 89.81, 262.01 88.64, 263.54 87.21" stroke="#228be6" stroke-width="0.5" fill="none"></path><path d="M0.08 1.26 C96.27 -0.74, 192.92 -1.09, 262.73 -1.26 M-0.16 -0.57 C100.08 -0.76, 199.87 0.06, 261.94 0.6 M260.36 -0.6 C260.82 27.36, 263.55 52.95, 261.42 89.64 M262.9 -0.71 C261.59 29.07, 261.38 56.57, 261.56 91 M261.08 90.66 C181.17 90.37, 98.16 89.75, -0.11 89.65 M262.47 91.44 C166.17 89.45, 70.14 90.26, 0.59 90.56 M-1.73 92.14 C0.18 67.34, 0.82 43.19, -0.65 -1.31 M-0.51 90.28 C-0.6 55.02, -0.04 17.59, 0.93 -0.59" stroke="#000000" stroke-width="1" fill="none"></path></g><g transform="translate(142.04817277528343 393) rotate(0 49.5 12.5)"><text x="0" y="18" font-family="Virgil, Segoe UI Emoji" font-size="20px" fill="#000000" text-anchor="start" style="white-space: pre;" direction="ltr">Hello Arya</text></g><g transform="translate(155.04817277528343 457) rotate(0 39.5 12.5)"><text x="0" y="18" font-family="Virgil, Segoe UI Emoji" font-size="20px" fill="#000000" text-anchor="start" style="white-space: pre;" direction="ltr">userMsg</text></g><g transform="translate(107.04817277528343 321) rotate(0 131.5 12.5)"><text x="0" y="18" font-family="Virgil, Segoe UI Emoji" font-size="20px" fill="#000000" text-anchor="start" style="white-space: pre;" direction="ltr">function execution context</text></g><g stroke-linecap="round" transform="translate(76.04817277528343 211) rotate(0 61 16.5)"><path d="M-1.27 -0.01 C49.32 1.39, 96.1 0.65, 122.92 -1.09 M0.19 -0.2 C31.16 -1.13, 63.23 -1.21, 121.37 -0.5 M123.84 -0.91 C123.11 11.98, 123.3 21.76, 120.57 32.75 M121.65 0.23 C122.57 8.56, 123.11 18.35, 121.37 32.28 M122.61 32.43 C98.09 33.32, 71.29 33.45, -0.35 32.81 M121.39 33.48 C87.91 33.34, 53.93 33.3, -0.25 32.47 M-0.82 33.52 C-1.7 27.97, 1.52 19.81, 1.97 -1.14 M0.95 32.3 C-0.56 25.36, -0.73 20.39, 0.97 0.73" stroke="#000000" stroke-width="1" fill="none"></path></g></svg>